<svg width="97" height="31" viewBox="0 0 97 31" fill="none" xmlns="http://www.w3.org/2000/svg">
<path d="M6 0.5H34L31.5 4.5C2.5 2 9.5 5 10 7.5C10.8378 11.689 9 10 21.5 10.5L20 14.5H9.5L8 20H29.5L26.5 24.5H1L6 0.5Z" fill="#B80707"/>
<path d="M34 0.5C31.2 0.5 12.3333 0.5 6 0.5M34 0.5L31.5 4.5C2.5 2 9.5 5 10 7.5C10.8378 11.689 9 10 21.5 10.5L20 14.5H9.5L8 20H29.5L26.5 24.5H1L6 0.5M34 0.5H6" stroke="#B80707"/>
<path d="M39.325 24C38.225 24 37.375 23.8417 36.775 23.525C36.1917 23.2083 35.7917 22.775 35.575 22.225C35.3583 21.6583 35.25 21.0083 35.25 20.275V16.5C35.25 15.8333 35.3583 15.225 35.575 14.675C35.8083 14.1083 36.2167 13.6583 36.8 13.325C37.3833 12.975 38.225 12.8 39.325 12.8H42.525C44.4417 12.8 45.85 12.8833 46.75 13.05C47.65 13.2167 48.1583 13.3833 48.275 13.55L47.525 16.2C47.175 16.1667 46.5417 16.1167 45.625 16.05C44.7083 15.9833 43.7 15.95 42.6 15.95H41.075C40.6417 15.95 40.3333 16.0333 40.15 16.2C39.9667 16.3667 39.875 16.6167 39.875 16.95V19.85C39.875 20.1833 39.9583 20.4333 40.125 20.6C40.2917 20.7667 40.6083 20.85 41.075 20.85H42.35C43.5833 20.85 44.6417 20.825 45.525 20.775C46.425 20.7083 47.0833 20.65 47.5 20.6L49 22.975C49 23.2083 48.5833 23.4417 47.75 23.675C46.9333 23.8917 45.7083 24 44.075 24H39.325ZM54.3338 24C53.2338 24 52.4088 23.8417 51.8588 23.525C51.3088 23.2083 50.9421 22.775 50.7588 22.225C50.5921 21.6583 50.5088 21.0083 50.5088 20.275V16.5C50.5088 15.8 50.6005 15.175 50.7838 14.625C50.9671 14.0583 51.3255 13.6167 51.8588 13.3C52.4088 12.9667 53.2338 12.8 54.3338 12.8H61.2838C62.3838 12.8 63.2005 12.9667 63.7338 13.3C64.2838 13.6167 64.6421 14.0583 64.8088 14.625C64.9921 15.175 65.0838 15.8 65.0838 16.5V20.275C65.0838 21.0083 64.9921 21.6583 64.8088 22.225C64.6421 22.775 64.2838 23.2083 63.7338 23.525C63.2005 23.8417 62.3838 24 61.2838 24H54.3338ZM56.3338 20.85H59.3088C60.1088 20.85 60.5005 20.5167 60.4838 19.85V16.95C60.4838 16.6167 60.3921 16.3667 60.2088 16.2C60.0421 16.0333 59.7421 15.95 59.3088 15.95H56.3588C55.9255 15.95 55.6171 16.0333 55.4338 16.2C55.2505 16.3667 55.1588 16.6167 55.1588 16.95V19.85C55.1421 20.5167 55.5338 20.85 56.3338 20.85ZM67.8242 24V12.8H71.4492L72.0742 13.1C72.5576 13.0167 73.0992 12.95 73.6992 12.9C74.3159 12.8333 74.9742 12.8 75.6742 12.8H77.0242C77.5076 12.8 77.9742 12.8667 78.4242 13C78.8742 13.1167 79.2076 13.2917 79.4242 13.525C79.7076 13.375 80.0159 13.25 80.3492 13.15C80.6826 13.0333 81.1076 12.95 81.6242 12.9C82.1576 12.8333 82.8326 12.8 83.6492 12.8H84.8992C85.7326 12.8 86.3742 12.9167 86.8242 13.15C87.2742 13.3833 87.5909 13.675 87.7742 14.025C87.9742 14.375 88.0909 14.7333 88.1242 15.1C88.1742 15.45 88.1992 15.75 88.1992 16V24H83.6242V16.95C83.6242 16.2833 83.2242 15.95 82.4242 15.95H81.0242C80.7576 15.95 80.5742 15.9833 80.4742 16.05C80.3742 16.1167 80.3242 16.2667 80.3242 16.5V24H75.6742V16.95C75.6742 16.2833 75.2742 15.95 74.4742 15.95H73.1992C72.8826 15.95 72.6742 15.9833 72.5742 16.05C72.4909 16.1 72.4492 16.25 72.4492 16.5V24H67.8242Z" fill="white"/>
<rect x="1" y="28" width="96" height="3" fill="#B80707"/>
<rect x="7.2832" y="1" width="5.38255" height="22.3837" transform="rotate(11.0315 7.2832 1)" fill="#B80707"/>
<rect x="6" width="25" height="5" fill="#B80707"/>
</svg>
