<svg width="117" height="25" viewBox="0 0 117 25" fill="none" xmlns="http://www.w3.org/2000/svg">
<path d="M27.408 17C26.704 17 26.16 16.8986 25.776 16.696C25.4027 16.4933 25.1467 16.216 25.008 15.864C24.8693 15.5013 24.8 15.0853 24.8 14.616V12.2C24.8 11.7733 24.8693 11.384 25.008 11.032C25.1573 10.6693 25.4187 10.3813 25.792 10.168C26.1653 9.94397 26.704 9.83197 27.408 9.83197H29.456C30.6827 9.83197 31.584 9.8853 32.16 9.99197C32.736 10.0986 33.0613 10.2053 33.136 10.312L32.656 12.008C32.432 11.9866 32.0267 11.9546 31.44 11.912C30.8533 11.8693 30.208 11.848 29.504 11.848H28.528C28.2507 11.848 28.0533 11.9013 27.936 12.008C27.8187 12.1146 27.76 12.2746 27.76 12.488V14.344C27.76 14.5573 27.8133 14.7173 27.92 14.824C28.0267 14.9306 28.2293 14.984 28.528 14.984H29.344C30.1333 14.984 30.8107 14.968 31.376 14.936C31.952 14.8933 32.3733 14.856 32.64 14.824L33.6 16.344C33.6 16.4933 33.3333 16.6426 32.8 16.792C32.2773 16.9306 31.4933 17 30.448 17H27.408ZM37.0136 17C36.3096 17 35.7816 16.8986 35.4296 16.696C35.0776 16.4933 34.843 16.216 34.7256 15.864C34.619 15.5013 34.5656 15.0853 34.5656 14.616V12.2C34.5656 11.752 34.6243 11.352 34.7416 11C34.859 10.6373 35.0883 10.3546 35.4296 10.152C35.7816 9.93864 36.3096 9.83197 37.0136 9.83197H41.4616C42.1656 9.83197 42.6883 9.93864 43.0296 10.152C43.3816 10.3546 43.611 10.6373 43.7176 11C43.835 11.352 43.8936 11.752 43.8936 12.2V14.616C43.8936 15.0853 43.835 15.5013 43.7176 15.864C43.611 16.216 43.3816 16.4933 43.0296 16.696C42.6883 16.8986 42.1656 17 41.4616 17H37.0136ZM38.2936 14.984H40.1976C40.7096 14.984 40.9603 14.7706 40.9496 14.344V12.488C40.9496 12.2746 40.891 12.1146 40.7736 12.008C40.667 11.9013 40.475 11.848 40.1976 11.848H38.3096C38.0323 11.848 37.835 11.9013 37.7176 12.008C37.6003 12.1146 37.5416 12.2746 37.5416 12.488V14.344C37.531 14.7706 37.7816 14.984 38.2936 14.984ZM45.6475 17V9.83197H47.9675L48.3675 10.024C48.6768 9.97064 49.0235 9.92797 49.4075 9.89597C49.8022 9.8533 50.2235 9.83197 50.6715 9.83197H51.5355C51.8448 9.83197 52.1435 9.87464 52.4315 9.95997C52.7195 10.0346 52.9328 10.1466 53.0715 10.296C53.2528 10.2 53.4502 10.12 53.6635 10.056C53.8768 9.9813 54.1488 9.92797 54.4795 9.89597C54.8208 9.8533 55.2528 9.83197 55.7755 9.83197H56.5755C57.1088 9.83197 57.5195 9.90664 57.8075 10.056C58.0955 10.2053 58.2982 10.392 58.4155 10.616C58.5435 10.84 58.6182 11.0693 58.6395 11.304C58.6715 11.528 58.6875 11.72 58.6875 11.88V17H55.7595V12.488C55.7595 12.0613 55.5035 11.848 54.9915 11.848H54.0955C53.9248 11.848 53.8075 11.8693 53.7435 11.912C53.6795 11.9546 53.6475 12.0506 53.6475 12.2V17H50.6715V12.488C50.6715 12.0613 50.4155 11.848 49.9035 11.848H49.0875C48.8848 11.848 48.7515 11.8693 48.6875 11.912C48.6342 11.944 48.6075 12.04 48.6075 12.2V17H45.6475ZM60.5225 17V9.83197H62.8425L63.2425 10.024C63.5518 9.97064 63.8985 9.92797 64.2825 9.89597C64.6772 9.8533 65.0985 9.83197 65.5465 9.83197H66.4105C66.7198 9.83197 67.0185 9.87464 67.3065 9.95997C67.5945 10.0346 67.8078 10.1466 67.9465 10.296C68.1278 10.2 68.3252 10.12 68.5385 10.056C68.7518 9.9813 69.0238 9.92797 69.3545 9.89597C69.6958 9.8533 70.1278 9.83197 70.6505 9.83197H71.4505C71.9838 9.83197 72.3945 9.90664 72.6825 10.056C72.9705 10.2053 73.1732 10.392 73.2905 10.616C73.4185 10.84 73.4932 11.0693 73.5145 11.304C73.5465 11.528 73.5625 11.72 73.5625 11.88V17H70.6345V12.488C70.6345 12.0613 70.3785 11.848 69.8665 11.848H68.9705C68.7998 11.848 68.6825 11.8693 68.6185 11.912C68.5545 11.9546 68.5225 12.0506 68.5225 12.2V17H65.5465V12.488C65.5465 12.0613 65.2905 11.848 64.7785 11.848H63.9625C63.7598 11.848 63.6265 11.8693 63.5625 11.912C63.5092 11.944 63.4825 12.04 63.4825 12.2V17H60.5225ZM77.8455 17C77.1415 17 76.5975 16.8986 76.2135 16.696C75.8402 16.4933 75.5842 16.216 75.4455 15.864C75.3068 15.5013 75.2375 15.0853 75.2375 14.616V12.2C75.2375 11.7733 75.3068 11.384 75.4455 11.032C75.5948 10.6693 75.8562 10.3813 76.2295 10.168C76.6028 9.94397 77.1415 9.83197 77.8455 9.83197H81.1575C81.9895 9.83197 82.6242 9.9333 83.0615 10.136C83.5095 10.328 83.8135 10.6053 83.9735 10.968C84.1442 11.32 84.2295 11.7306 84.2295 12.2V14.248H81.4295C80.4695 14.248 79.7388 14.2266 79.2375 14.184C78.7468 14.1413 78.4002 14.1146 78.1975 14.104V14.344C78.1868 14.7706 78.4428 14.984 78.9655 14.984H79.4615C80.3148 14.984 81.1042 14.968 81.8295 14.936C82.5548 14.8933 83.0935 14.856 83.4455 14.824L84.4055 16.344C84.4055 16.4506 84.3148 16.552 84.1335 16.648C83.9522 16.744 83.6322 16.8293 83.1735 16.904C82.7255 16.968 82.0855 17 81.2535 17H77.8455ZM78.1975 12.712H81.2695V12.488C81.2695 12.2746 81.2482 12.1253 81.2055 12.04C81.1735 11.9546 81.0615 11.9013 80.8695 11.88C80.6775 11.8586 80.3522 11.848 79.8935 11.848H78.9655C78.4535 11.848 78.1975 12.0613 78.1975 12.488V12.712ZM86.0069 17V9.83197H88.2789L88.8869 10.152C89.3775 9.83197 90.0282 9.67197 90.8389 9.67197C91.3722 9.67197 91.8415 9.73064 92.2469 9.84797C92.6522 9.95464 92.9775 10.072 93.2229 10.2C93.4789 10.328 93.6389 10.4186 93.7029 10.472L92.9029 12.552C92.7962 12.4773 92.5935 12.376 92.2949 12.248C92.0069 12.12 91.6655 12.0026 91.2709 11.896C90.8762 11.7786 90.4602 11.72 90.0229 11.72H89.8469C89.5482 11.72 89.3189 11.7733 89.1589 11.88C88.9989 11.976 88.9189 12.1946 88.9189 12.536V17H86.0069ZM97.2674 17C96.5634 17 96.0194 16.8986 95.6354 16.696C95.262 16.4933 95.006 16.216 94.8674 15.864C94.7287 15.5013 94.6594 15.0853 94.6594 14.616V12.2C94.6594 11.7733 94.7287 11.384 94.8674 11.032C95.0167 10.6693 95.278 10.3813 95.6514 10.168C96.0247 9.94397 96.5634 9.83197 97.2674 9.83197H99.3154C100.542 9.83197 101.443 9.8853 102.019 9.99197C102.595 10.0986 102.921 10.2053 102.995 10.312L102.515 12.008C102.291 11.9866 101.886 11.9546 101.299 11.912C100.713 11.8693 100.067 11.848 99.3634 11.848H98.3874C98.11 11.848 97.9127 11.9013 97.7954 12.008C97.678 12.1146 97.6194 12.2746 97.6194 12.488V14.344C97.6194 14.5573 97.6727 14.7173 97.7794 14.824C97.886 14.9306 98.0887 14.984 98.3874 14.984H99.2034C99.9927 14.984 100.67 14.968 101.235 14.936C101.811 14.8933 102.233 14.856 102.499 14.824L103.459 16.344C103.459 16.4933 103.193 16.6426 102.659 16.792C102.137 16.9306 101.353 17 100.307 17H97.2674ZM107.033 17C106.329 17 105.785 16.8986 105.401 16.696C105.028 16.4933 104.772 16.216 104.633 15.864C104.494 15.5013 104.425 15.0853 104.425 14.616V12.2C104.425 11.7733 104.494 11.384 104.633 11.032C104.782 10.6693 105.044 10.3813 105.417 10.168C105.79 9.94397 106.329 9.83197 107.033 9.83197H110.345C111.177 9.83197 111.812 9.9333 112.249 10.136C112.697 10.328 113.001 10.6053 113.161 10.968C113.332 11.32 113.417 11.7306 113.417 12.2V14.248H110.617C109.657 14.248 108.926 14.2266 108.425 14.184C107.934 14.1413 107.588 14.1146 107.385 14.104V14.344C107.374 14.7706 107.63 14.984 108.153 14.984H108.649C109.502 14.984 110.292 14.968 111.017 14.936C111.742 14.8933 112.281 14.856 112.633 14.824L113.593 16.344C113.593 16.4506 113.502 16.552 113.321 16.648C113.14 16.744 112.82 16.8293 112.361 16.904C111.913 16.968 111.273 17 110.441 17H107.033ZM107.385 12.712H110.457V12.488C110.457 12.2746 110.436 12.1253 110.393 12.04C110.361 11.9546 110.249 11.9013 110.057 11.88C109.865 11.8586 109.54 11.848 109.081 11.848H108.153C107.641 11.848 107.385 12.0613 107.385 12.488V12.712Z" fill="white"/>
<rect y="20" width="117" height="5" fill="#B80707"/>
<rect y="0.999969" width="5" height="22" fill="#B80707"/>
<rect x="23.0713" y="0.350525" width="5" height="23.0564" transform="rotate(90.13 23.0713 0.350525)" fill="#B80707"/>
<rect x="13.1328" y="9.02972" width="5" height="13.1218" transform="rotate(90.13 13.1328 9.02972)" fill="#B80707"/>
</svg>
